<?xml version="1.0" encoding="utf-8"?>
<!-- Generator: Adobe Illustrator 20.1.0, SVG Export Plug-In . SVG Version: 6.00 Build 0)  -->
<svg version="1.1" id="Layer_1" xmlns="http://www.w3.org/2000/svg" xmlns:xlink="http://www.w3.org/1999/xlink" x="0px" y="0px"
	 viewBox="0 0 353.6 186.6" style="enable-background:new 0 0 353.6 186.6;" xml:space="preserve">
<style type="text/css">
	.st0{fill:#323132;}
</style>
<g>
	<g>
		<path class="st0" d="M171.4,170.3c0-4.5,3.1-7.1,6.5-7.1c3.4,0,6.5,2.6,6.5,7.1c0,4.5-3.1,7.1-6.5,7.1
			C174.5,177.4,171.4,174.8,171.4,170.3z M181.1,170.3c0-2.7-1.2-4.5-3.2-4.5c-2,0-3.2,1.8-3.2,4.5c0,2.7,1.2,4.5,3.2,4.5
			C179.9,174.8,181.1,173,181.1,170.3z"/>
		<path class="st0" d="M186.7,163.5h2.6l0.2,1.8h0.1c1.2-1.2,2.6-2.2,4.5-2.2c2.9,0,4.2,2,4.2,5.4v8.5h-3.2V169
			c0-2.2-0.6-3.1-2.1-3.1c-1.2,0-2,0.6-3.1,1.7v9.5h-3.2V163.5z"/>
		<path class="st0" d="M200.5,170.3c0-4.4,3.1-7.1,6.3-7.1c3.7,0,5.6,2.7,5.6,6.5c0,0.6-0.1,1.2-0.1,1.5h-8.6c0.3,2.4,1.8,3.8,4,3.8
			c1.2,0,2.2-0.4,3.2-1l1.1,2c-1.3,0.9-2.9,1.5-4.7,1.5C203.4,177.4,200.5,174.8,200.5,170.3z M209.6,169c0-2.1-0.9-3.4-2.8-3.4
			c-1.6,0-3,1.2-3.3,3.4H209.6z"/>
		<path class="st0" d="M217.9,175.5l1.5-2c1.2,0.9,2.4,1.5,3.8,1.5c1.5,0,2.2-0.7,2.2-1.6c0-1.1-1.5-1.6-2.9-2.2
			c-1.8-0.7-3.8-1.7-3.8-4c0-2.4,1.9-4.1,5-4.1c1.9,0,3.4,0.8,4.5,1.6l-1.5,1.9c-0.9-0.7-1.9-1.2-3-1.2c-1.4,0-2,0.6-2,1.5
			c0,1.1,1.4,1.5,2.8,2c1.9,0.7,3.9,1.6,3.9,4.1c0,2.3-1.9,4.2-5.3,4.2C221.2,177.4,219.2,176.6,217.9,175.5z"/>
		<path class="st0" d="M230.3,172.5V166h-1.9v-2.4l2.1-0.1l0.4-3.7h2.7v3.7h3.5v2.5h-3.5v6.5c0,1.6,0.6,2.4,1.9,2.4
			c0.5,0,1-0.1,1.4-0.3l0.6,2.4c-0.7,0.2-1.7,0.5-2.8,0.5C231.4,177.4,230.3,175.4,230.3,172.5z"/>
		<path class="st0" d="M237.6,170.3c0-4.4,3.1-7.1,6.3-7.1c3.7,0,5.6,2.7,5.6,6.5c0,0.6-0.1,1.2-0.1,1.5h-8.6c0.3,2.4,1.8,3.8,4,3.8
			c1.2,0,2.2-0.4,3.2-1l1.1,2c-1.3,0.9-2.9,1.5-4.7,1.5C240.6,177.4,237.6,174.8,237.6,170.3z M246.8,169c0-2.1-0.9-3.4-2.8-3.4
			c-1.6,0-3,1.2-3.3,3.4H246.8z"/>
		<path class="st0" d="M251.7,163.5h2.6l0.2,1.4h0.1c1.1-1,2.6-1.8,4.1-1.8c3.4,0,5.3,2.7,5.3,6.9c0,4.7-2.8,7.3-5.8,7.3
			c-1.2,0-2.4-0.6-3.5-1.5l0.1,2.3v4.3h-3.2V163.5z M260.8,170.1c0-2.7-0.9-4.3-2.9-4.3c-1,0-1.9,0.5-3,1.5v6.3
			c1,0.8,1.9,1.1,2.7,1.1C259.5,174.8,260.8,173.2,260.8,170.1z"/>
		<path class="st0" d="M274.1,175.6L274.1,175.6l-0.4,1.4h-2.5v-19.5h3.2v5l-0.1,2.3c1.1-1,2.5-1.7,3.9-1.7c3.4,0,5.4,2.7,5.4,6.9
			c0,4.7-2.8,7.4-5.8,7.4C276.6,177.4,275.2,176.8,274.1,175.6z M280.3,170.1c0-2.7-0.9-4.3-2.9-4.3c-1,0-1.9,0.5-3,1.5v6.3
			c1,0.8,1.9,1.1,2.7,1.1C278.9,174.8,280.3,173.2,280.3,170.1z"/>
		<path class="st0" d="M285.1,170.3c0-4.4,3.1-7.1,6.3-7.1c3.7,0,5.6,2.7,5.6,6.5c0,0.6-0.1,1.2-0.1,1.5h-8.6c0.3,2.4,1.8,3.8,4,3.8
			c1.2,0,2.2-0.4,3.2-1l1.1,2c-1.3,0.9-2.9,1.5-4.7,1.5C288,177.4,285.1,174.8,285.1,170.3z M294.2,169c0-2.1-0.9-3.4-2.8-3.4
			c-1.6,0-3,1.2-3.3,3.4H294.2z"/>
		<path class="st0" d="M298.3,182.4l0.6-2.5c0.2,0.1,0.6,0.2,1,0.2c1.4,0,2.3-1,2.7-2.3l0.2-0.9l-5.3-13.4h3.2l2.4,6.7
			c0.4,1.2,0.8,2.5,1.2,3.8h0.1c0.3-1.2,0.7-2.6,1-3.8l2-6.7h3.1l-4.9,14.2c-1.1,3.1-2.5,5-5.5,5
			C299.3,182.7,298.8,182.5,298.3,182.4z"/>
		<path class="st0" d="M311,170.3c0-4.5,3.1-7.1,6.5-7.1c3.4,0,6.5,2.6,6.5,7.1c0,4.5-3.1,7.1-6.5,7.1
			C314.1,177.4,311,174.8,311,170.3z M320.7,170.3c0-2.7-1.2-4.5-3.2-4.5c-2,0-3.2,1.8-3.2,4.5c0,2.7,1.2,4.5,3.2,4.5
			C319.4,174.8,320.7,173,320.7,170.3z"/>
		<path class="st0" d="M326.3,163.5h2.6l0.2,1.8h0.1c1.2-1.2,2.6-2.2,4.5-2.2c2.9,0,4.2,2,4.2,5.4v8.5h-3.2V169
			c0-2.2-0.6-3.1-2.1-3.1c-1.2,0-2,0.6-3.1,1.7v9.5h-3.2V163.5z"/>
		<path class="st0" d="M340.1,170.3c0-4.4,2.8-7.1,5.8-7.1c1.6,0,2.5,0.6,3.6,1.5l-0.1-2.2v-4.9h3.2v19.5h-2.6l-0.2-1.5h-0.1
			c-1,1-2.4,1.8-3.8,1.8C342.3,177.4,340.1,174.8,340.1,170.3z M349.3,173.2v-6.3c-0.9-0.8-1.9-1.1-2.8-1.1c-1.7,0-3.2,1.6-3.2,4.5
			c0,2.9,1.1,4.5,3.1,4.5C347.5,174.8,348.4,174.3,349.3,173.2z"/>
	</g>
	<g>
		<path class="st0" d="M46.7,55.4L19.6,84L0,104.8h17.3v51.4c0,21.7,10.7,30.4,37.7,30.4c5.6,0,11.1-0.6,14.7-1.3v-21.1
			c-2.8,0.3-4.8,0.4-8.7,0.4c-10,0-14.4-4.4-14.4-14.1v-45.7h23.1V81.7H46.7V55.4z"/>
		<path class="st0" d="M353.6,104.9v-8.6c0-33.8-18.5-53.8-49.9-53.8c-31.7,0-51.2,21.4-51.2,56.1c0,34.6,20.9,55.1,53.4,55.1
			c26.1,0,42.6-12.6,46.9-32.7h-26.2c-3,7.1-10.6,11-21.7,11c-14.7,0-24-9.9-24.3-25.7v-1.4H353.6z M303.8,64
			c13.1,0,21.6,8.8,22.2,22.9h-45.4C281.5,73.1,290.7,64,303.8,64z"/>
		<path class="st0" d="M271.6,42.4h-31.4L201,85.6L201,0h-29.3l0,105.2c-0.4-3.8-1.3-7.2-2-9.5c-5.3-15.6-20.6-24.4-44-24.4
			c-27.9,0-46.8,12.9-48.7,33.5h27c2.4-6.7,9.5-10.3,20.1-10.3c12.1,0,18.8,5.2,18.8,14.5v9.1l-26.9,1.6
			c-27.6,1.6-43.1,13.3-43.1,33.5c0,20.4,15,33.5,36.4,33.5c4,0,8.5-0.1,12.8-0.3c17.4-1.7,30.3-11.6,36.5-17.4l13.2-14l29.2-32.6
			l3.5-4l33.6,35.3h36.1l-52.3-55L271.6,42.4z M142.7,144.6c0,11.3-10.3,20-23.9,20c-10.2,0-17.3-5-17.3-13.3
			c0-8,6.2-12.5,18.8-13.4l22.5-1.4V144.6z"/>
	</g>
</g>
</svg>
